<svg xmlns="http://www.w3.org/2000/svg" width="202.274" height="358.726" viewBox="0 0 202.274 358.726">
  <g id="Group_6775" data-name="Group 6775" transform="translate(-118.944 -31)">
	<g id="Group_6774" data-name="Group 6774" transform="translate(97 31)" opacity="0.22">
	  <path id="Path_3392" data-name="Path 3392" d="M19.815,39.5a19.75,19.75,0,1,1,19.8-19.749A19.805,19.805,0,0,1,19.815,39.5" transform="translate(136.157 75.017) rotate(90)" fill="#f5fafb"/>
	  <path id="Path_3393" data-name="Path 3393" d="M14.149,28.214A14.107,14.107,0,1,1,28.3,14.1,14.149,14.149,0,0,1,14.149,28.214" transform="translate(68.967 80.91) rotate(90)" fill="#f5fafb"/>
	  <path id="Path_3394" data-name="Path 3394" d="M14.149,28.214A14.107,14.107,0,1,1,28.3,14.1,14.149,14.149,0,0,1,14.149,28.214" transform="translate(130.852 32.071) rotate(90)" fill="#f5fafb"/>
	  <path id="Path_3395" data-name="Path 3395" d="M14.149,28.214A14.107,14.107,0,1,1,28.3,14.1,14.149,14.149,0,0,1,14.149,28.214" transform="translate(130.852 127.718) rotate(90)" fill="#f5fafb"/>
	  <path id="Path_3396" data-name="Path 3396" d="M14.149,28.214A14.107,14.107,0,1,1,28.3,14.1,14.149,14.149,0,0,1,14.149,28.214" transform="translate(130.852 230.695) rotate(90)" fill="#f5fafb"/>
	  <path id="Path_3397" data-name="Path 3397" d="M14.149,28.214A14.107,14.107,0,1,1,28.3,14.1,14.149,14.149,0,0,1,14.149,28.214" transform="translate(179.071 286.864) rotate(90)" fill="#f5fafb"/>
	  <path id="Path_3398" data-name="Path 3398" d="M14.149,28.214A14.107,14.107,0,1,1,28.3,14.1,14.149,14.149,0,0,1,14.149,28.214" transform="translate(68.967 174.525) rotate(90)" fill="#f5fafb"/>
	  <path id="Path_3399" data-name="Path 3399" d="M14.149,28.214A14.107,14.107,0,1,1,28.3,14.1,14.149,14.149,0,0,1,14.149,28.214" transform="translate(68.967 286.864) rotate(90)" fill="#f5fafb"/>
	  <path id="Path_3400" data-name="Path 3400" d="M11.011,21.944a10.972,10.972,0,1,1,11-10.972,11,11,0,0,1-11,10.972" transform="translate(224.218 289.95) rotate(90)" fill="#f5fafb"/>
	  <path id="Path_3401" data-name="Path 3401" d="M11.011,21.944a10.972,10.972,0,1,1,11-10.972,11,11,0,0,1-11,10.972" transform="translate(176.057 233.831) rotate(90)" fill="#f5fafb"/>
	  <path id="Path_3402" data-name="Path 3402" d="M11.011,21.944a10.972,10.972,0,1,1,11-10.972,11,11,0,0,1-11,10.972" transform="translate(127.897 177.711) rotate(90)" fill="#f5fafb"/>
	  <path id="Path_3406" data-name="Path 3406" d="M11.011,21.944a10.972,10.972,0,1,1,11-10.972,11,11,0,0,1-11,10.972" transform="translate(175.897 130.571) rotate(90)" fill="#f5fafb"/>
	  <path id="Path_3404" data-name="Path 3404" d="M11.011,21.944a10.972,10.972,0,1,1,11-10.972,11,11,0,0,1-11,10.972" transform="translate(43.888 87.199) rotate(90)" fill="#f5fafb" opacity="0"/>
	  <path id="Path_3405" data-name="Path 3405" d="M11.011,21.944a10.972,10.972,0,1,1,11-10.972,11,11,0,0,1-11,10.972" transform="translate(129.273) rotate(90)" fill="#f5fafb"/>
	  <path id="Path_3403" data-name="Path 3403" d="M11.011,21.944a10.972,10.972,0,1,1,11-10.972,11,11,0,0,1-11,10.972" transform="translate(65.832 336.716) rotate(90)" fill="#f5fafb"/>
	</g>
  </g>
</svg>