<svg xmlns="http://www.w3.org/2000/svg">
  <symbol id="back-button" viewBox="0 0 28 28">
    <path fill="white" fill-rule="evenodd" clip-rule="evenodd" d="M0 14C0 6.26733 6.26733 0 14 0C21.7315 0 28 6.26733 28 14C28 21.7315 21.7315 28 14 28C6.26733 28 0 21.7315 0 14ZM16.25 21.5L18 19.7692L12.1667 14L18 8.23077L16.25 6.5L8.66667 14L16.25 21.5Z"/>
  </symbol>
  
  <symbol id="power-off" viewBox="0 0 68 71">
    <g fill-rule="evenodd">
      <path d="M34.001 39C36.211 39 38 37.331 38 35.276V3.724C38 1.669 36.21 0 34.001 0 31.791 0 30 1.669 30 3.724v31.552C30 37.331 31.792 39 34.001 39"/>
      <path d="M44.808 9.011a3.788 3.788 0 0 0 1.574 5.142c8.613 4.563 13.964 13.411 13.964 23.09 0 14.423-11.82 26.158-26.346 26.158S7.656 51.666 7.656 37.244c0-9.68 5.349-18.528 13.962-23.091a3.788 3.788 0 0 0 1.574-5.142 3.844 3.844 0 0 0-5.178-1.563C6.902 13.336 0 24.752 0 37.244 0 55.856 15.253 71 34 71s34-15.144 34-33.756c0-12.492-6.902-23.908-18.011-29.796-1.866-.988-4.185-.287-5.181 1.563z"/>
    </g>
  </symbol>
  
</svg>
